<?xml version="1.0" encoding="utf-8"?>
<!-- Generator: Adobe Illustrator 27.1.1, SVG Export Plug-In . SVG Version: 6.00 Build 0)  -->
<svg version="1.1" id="Layer_1" xmlns="http://www.w3.org/2000/svg" xmlns:xlink="http://www.w3.org/1999/xlink" x="0px" y="0px"
	 viewBox="0 0 1850.5 510.5" style="enable-background:new 0 0 1850.5 510.5;" xml:space="preserve">
<style type="text/css">
	.st0{fill:#FEE245;}
	.st1{font-family:'Arial-BoldMT';}
	.st2{font-size:382.75px;}
</style>
<g>
	<g>
		<path class="st0" d="M489.1,8.1c-0.3,7.9,0.4,16,0,23.9c-5.2,95.3-57,188.2-125.6,252.3c-1.5,60.6-25.8,125.2-67.8,169.1
			c-7.9,8.2-17.1,17.3-24.9,2.9l-11-79.3c-10.6,7.2-14,18.4-27.2,7.7L103.7,255.6c-8.9-12.4,3.2-16.2,9-25.7l-79.4-10.9
			c-6.2-1.9-9.1-7.7-7.1-14c1.2-3.9,19.2-18.9,23.6-22.3c44.2-35.1,98.8-55.1,155.6-56.5C268.9,57.2,365.7,4.5,460.9,0.5
			C470.3,0.1,485.2-2.3,489.1,8.1L489.1,8.1z M344.6,89.6c-73.2,6.8-52.6,120.4,19.3,99.6C421.7,172.5,405.3,84,344.6,89.6z"/>
		<path class="st0" d="M13.3,489.8H7.6c-5.5-2.7-8.3-6.3-7.4-12.7c10.2-31.2,19.7-63.1,33.1-93.1C44.3,359,55,335.9,84,328.7
			c71.1-17.4,112.5,78.2,43.6,117.2C92.8,465.7,50.7,475.8,13.3,489.8L13.3,489.8z"/>
	</g>
	<text transform="matrix(1 0 0 1 489.5427 366.3972)" class="st0 st1 st2">BOOST</text>
</g>
</svg>
