<?xml version="1.0" encoding="utf-8"?>
<!-- Generator: Adobe Illustrator 27.1.1, SVG Export Plug-In . SVG Version: 6.00 Build 0)  -->
<svg version="1.1" id="Layer_1" xmlns="http://www.w3.org/2000/svg" xmlns:xlink="http://www.w3.org/1999/xlink" x="0px" y="0px"
	 viewBox="0 0 831.7 787.4" style="enable-background:new 0 0 831.7 787.4;" xml:space="preserve">
<style type="text/css">
	.st0{fill:#FEE245;}
</style>
<g>
	<path class="st0" d="M831.7,372.4H687.9c-14.5,0-42.6,11.1-55.4,18.7c-66.8,39.5-85.5,128-39.7,191.3
		c56.5,78.1,156,49.4,238.8,54.9v60.9c0,44-45.3,88.1-89.1,89.1l-647.4,0.1c-54.8-3.9-89.4-42.2-92.6-96.2
		c-7.5-127.4,4.2-263.8,2-391.9c8.2-42.7,43.6-74,87-77.1l657.5,0.6c29.7,3.3,59.1,24.5,72.2,51.3
		C835.7,303.4,830.4,340.7,831.7,372.4L831.7,372.4z"/>
	<path class="st0" d="M173.8,185.2L489.4,13c32-17.6,66.2-17.5,97.6,1.3c6,3.6,32.9,24.9,28.7,31.5L356.3,185.3L173.8,185.2
		L173.8,185.2z"/>
	<path class="st0" d="M829.9,411.2v187.2H686.1c-5.1,0-23.8-6.9-29.2-9.6c-71.5-36.2-67.5-142,7.2-171.3c3-1.2,16.8-6.2,18.5-6.2
		h147.3V411.2z M690.1,448.8c-70.1,9.5-57.6,119.9,15.2,112.3C778.3,553.6,769,438.1,690.1,448.8z"/>
	<polygon class="st0" points="440.1,185.2 634.9,79.2 687,185.2 	"/>
	<path class="st0" d="M230.2,109.3L89.6,184.8c-25.8,1.2-50,10.7-71,25.1c15.8-40.3,52.8-74.2,93-89.6c8.7-3.3,33.7-11,41.9-11
		L230.2,109.3L230.2,109.3z"/>
	<path class="st0" d="M815.8,210c-18.2-12.2-39-21.8-61.1-24.5c-6.8-0.8-19.9,1.5-24.6-1.8l-36-70.8
		C747.1,121.5,795.7,160.2,815.8,210L815.8,210z"/>
	<path class="st0" d="M697.2,485.7c22.8-3.1,28.8,31.6,8,36.4C677,528.6,671.5,489.2,697.2,485.7z"/>
</g>
</svg>
